<svg id="Capa_1" enable-background="new 0 0 512.002 512.002" height="512" viewBox="0 0 512.002 512.002" width="512" xmlns="http://www.w3.org/2000/svg"><g><g fill="#32393f"><path d="m278.106 134.739c-3.647-7.427-.586-16.421 6.855-20.068l22.603-11.104c11.572-5.669 24.697-13.344 27.524-20.83 2.9-7.764 11.543-11.719 19.321-8.745 7.749 2.915 11.675 11.572 8.745 19.321-7.017 18.618-25.825 29.077-42.407 37.192l-22.573 11.089c-7.453 3.649-16.426.573-20.068-6.855z"/><path d="m341.973 156.067c-1.04-8.218 4.79-15.718 13.008-16.758 6.244-.801 10.824-.496 25.972-3.164 19.878-3.647 32.08-8.496 36.167-14.399 4.673-6.841 14.048-8.54 20.859-3.809 6.812 4.702 8.525 14.048 3.809 20.859-11.719 16.948-35.815 23.262-55.518 26.865-13.447 2.407-24.034 3.074-27.539 3.413-8.6 1-15.762-5.066-16.758-13.007z"/><path d="m443.091 211.101c-13.052 0-24.082-.791-27.437-1.055-8.262-.674-14.414-7.925-13.74-16.172.674-8.262 7.998-14.268 16.172-13.74 3.428.278 15.688 1.201 29.458.938 25.078-.015 33.618-5.2 36.489-8.276 5.669-6.064 15.176-6.387 21.196-.747 6.064 5.64 6.401 15.132.747 21.196-16.171 17.358-44.12 17.768-62.885 17.856z"/></g><path d="m384.417 169.001-128.416-54.375-124.204 51.606-128.514 117.144c5.083 6.357 126.962 155.625 252.719 155.625s247.635-149.267 252.718-155.625z" fill="#f0f7ff"/><path d="m508.72 283.376-124.303-114.375-128.416-54.375v324.375c125.757 0 247.636-149.267 252.719-155.625z" fill="#deecf1"/><path d="m508.72 264.626c-5.083-6.357-126.962-155.625-252.719-155.625s-247.635 149.268-252.718 155.625c-5.171 6.475-4.116 15.908 2.343 21.079 6.519 5.186 15.938 4.116 21.08-2.329 1.157-1.45 117.982-144.375 229.296-144.375s228.138 142.925 229.295 144.375c5.14 6.412 14.54 7.553 21.078 2.329 6.461-5.171 7.516-14.604 2.345-21.079z" fill="#474f54"/><path d="m485.297 283.376c5.14 6.412 14.54 7.554 21.078 2.329 6.461-5.171 7.515-14.604 2.344-21.079-5.083-6.357-126.962-155.625-252.719-155.625v30c111.315 0 228.14 142.925 229.297 144.375z" fill="#32393f"/><circle cx="256.001" cy="274.001" fill="#64e1dc" r="105"/><path d="m361.001 274.001c0-57.891-47.109-105-105-105v210c57.891 0 105-47.109 105-105z" fill="#00c8c8"/><circle cx="256.001" cy="274.001" fill="#474f54" r="45"/><path d="m301.001 274.001c0-24.814-20.186-45-45-45v90c24.815 0 45-20.185 45-45z" fill="#32393f"/></g></svg>