<?xml version="1.0" encoding="iso-8859-1"?>
<!-- Generator: Adobe Illustrator 19.0.0, SVG Export Plug-In . SVG Version: 6.00 Build 0)  -->
<svg version="1.1" id="Capa_1" xmlns="http://www.w3.org/2000/svg" xmlns:xlink="http://www.w3.org/1999/xlink" x="0px" y="0px"
	 viewBox="0 0 50 50" style="enable-background:new 0 0 50 50;" xml:space="preserve">
<g>
	<path style="fill:#E4ECF4;" d="M31,20c4.962,0,9-4.038,9-9s-4.038-9-9-9c-0.552,0-1,0.448-1,1s0.448,1,1,1c3.86,0,7,3.14,7,7
		s-3.14,7-7,7H9c-4.962,0-9,4.038-9,9c0,0.552,0.448,1,1,1s1-0.448,1-1c0-3.86,3.14-7,7-7H31z"/>
	<path style="fill:#E4ECF4;" d="M38,30H18c-0.552,0-1,0.448-1,1s0.448,1,1,1h20c3.86,0,7,3.14,7,7s-3.14,7-7,7c-0.552,0-1,0.448-1,1
		s0.448,1,1,1c4.962,0,9-4.038,9-9S42.962,30,38,30z"/>
	<path style="fill:#E4ECF4;" d="M27,12c0.552,0,1-0.448,1-1c0-1.654,1.346-3,3-3s3,1.346,3,3s-1.346,3-3,3c-0.552,0-1,0.448-1,1
		s0.448,1,1,1c2.757,0,5-2.243,5-5s-2.243-5-5-5s-5,2.243-5,5C26,11.552,26.448,12,27,12z"/>
	<path style="fill:#E4ECF4;" d="M43,39c0-2.757-2.243-5-5-5c-0.552,0-1,0.448-1,1s0.448,1,1,1c1.654,0,3,1.346,3,3s-1.346,3-3,3
		s-3-1.346-3-3c0-0.552-0.448-1-1-1s-1,0.448-1,1c0,2.757,2.243,5,5,5S43,41.757,43,39z"/>
	<path style="fill:#E4ECF4;" d="M32,34h-6c-0.552,0-1,0.448-1,1s0.448,1,1,1h6c0.552,0,1-0.448,1-1S32.552,34,32,34z"/>
	<path style="fill:#E4ECF4;" d="M21,16h6c0.552,0,1-0.448,1-1s-0.448-1-1-1h-6c-0.552,0-1,0.448-1,1S20.448,16,21,16z"/>
	<path style="fill:#E4ECF4;" d="M41,23c0-0.552-0.448-1-1-1H9c-0.552,0-1,0.448-1,1s0.448,1,1,1h31C40.552,24,41,23.552,41,23z"/>
	<path style="fill:#E4ECF4;" d="M49,26H13c-0.552,0-1,0.448-1,1s0.448,1,1,1h36c0.552,0,1-0.448,1-1S49.552,26,49,26z"/>
</g>
<g>
</g>
<g>
</g>
<g>
</g>
<g>
</g>
<g>
</g>
<g>
</g>
<g>
</g>
<g>
</g>
<g>
</g>
<g>
</g>
<g>
</g>
<g>
</g>
<g>
</g>
<g>
</g>
<g>
</g>
</svg>
